<?xml version="1.0" encoding="utf-8"?>
<!-- Generator: Adobe Illustrator 21.0.0, SVG Export Plug-In . SVG Version: 6.00 Build 0)  -->
<svg version="1.1" id="Layer_1" xmlns="http://www.w3.org/2000/svg" xmlns:xlink="http://www.w3.org/1999/xlink" x="0px" y="0px"
	 width="224.2px" height="70px" viewBox="0 0 224.2 70" style="enable-background:new 0 0 224.2 70;" xml:space="preserve">
<style type="text/css">
	.st0{fill:#FFFFFF;}
</style>
<g>
	<path class="st0" d="M117.2,6c0-0.9,0.2-1.5,0.8-1.8c0.5-0.4,1.2-0.5,2-0.5c0.6,0,1.2,0.1,1.6,0.2c0.5,0.1,0.8,0.2,0.9,0.3v24.6
		h-5.3V18.1h-11v10.8H101V6c0-0.9,0.2-1.5,0.8-1.8c0.5-0.4,1.2-0.5,2-0.5c0.6,0,1.2,0.1,1.6,0.2c0.5,0.1,0.8,0.2,0.9,0.3v9.3h11V6z"
		/>
	<path class="st0" d="M145.1,28.7c-0.1,0-0.3,0.1-0.8,0.1c-0.5,0.1-1.1,0.1-1.8,0.2c-0.8,0.1-1.7,0.1-2.7,0.2
		c-1,0.1-2.2,0.1-3.4,0.1c-1.8,0-3.3-0.2-4.4-0.5c-1.2-0.3-2.1-0.7-2.8-1.3c-0.7-0.5-1.2-1.2-1.4-1.9c-0.3-0.7-0.4-1.5-0.4-2.4
		c0-1,0.2-2,0.5-2.7c0.3-0.8,0.8-1.4,1.5-1.9c0.7-0.5,1.6-0.9,2.7-1.1c1.1-0.2,2.5-0.4,4-0.4c1.1,0,2,0,2.7,0.1
		c0.7,0.1,1.2,0.1,1.3,0.1v-0.6c0-1.1-0.4-2-1.2-2.6c-0.8-0.6-2-0.9-3.6-0.9c-0.7,0-1.4,0.1-1.9,0.2c-0.6,0.1-1,0.3-1.4,0.5
		c-0.4,0.2-0.7,0.4-1,0.5c-0.3,0.2-0.5,0.3-0.7,0.4c-0.3-0.2-0.6-0.5-0.9-0.9c-0.3-0.4-0.4-0.9-0.4-1.4c0-0.5,0.2-1,0.5-1.4
		c0.3-0.4,0.8-0.7,1.4-0.9c0.6-0.2,1.2-0.4,2-0.5c0.7-0.1,1.5-0.1,2.3-0.1c1.5,0,2.8,0.1,4.1,0.4c1.2,0.3,2.3,0.7,3.2,1.3
		c0.9,0.6,1.6,1.5,2.1,2.5c0.5,1,0.7,2.3,0.7,3.9V28.7z M140,20.6c-0.1,0-0.2,0-0.4-0.1c-0.2,0-0.5,0-0.8-0.1c-0.3,0-0.7,0-1-0.1
		c-0.4,0-0.8,0-1.2,0c-0.9,0-1.6,0.1-2.2,0.2c-0.6,0.1-1,0.3-1.3,0.6c-0.3,0.3-0.5,0.6-0.6,0.9c-0.1,0.4-0.2,0.7-0.2,1.1
		c0,0.3,0,0.7,0.1,1c0.1,0.3,0.3,0.6,0.6,0.9c0.3,0.3,0.7,0.5,1.3,0.6c0.5,0.2,1.3,0.2,2.1,0.2c0.9,0,1.7,0,2.3-0.1
		c0.6-0.1,1-0.2,1.2-0.2V20.6z"/>
	<path class="st0" d="M150.5,11.4c0.1-0.1,0.4-0.2,0.8-0.4c0.4-0.2,1-0.4,1.7-0.6c0.7-0.2,1.6-0.4,2.6-0.6c1-0.2,2.2-0.3,3.5-0.3
		c1.6,0,3.1,0.3,4.4,0.8c1.3,0.5,2.4,1.2,3.3,2.1c0.9,0.9,1.6,2,2.1,3.3c0.5,1.3,0.7,2.7,0.7,4.2c0,1.5-0.2,2.8-0.7,4
		c-0.5,1.1-1.1,2.1-1.9,2.9c-0.8,0.8-1.7,1.3-2.7,1.7c-1,0.4-2.1,0.6-3.3,0.6c-0.9,0-1.6-0.1-2.3-0.2c-0.6-0.2-1.2-0.3-1.6-0.5
		c-0.5-0.2-0.8-0.4-1-0.6c-0.2-0.2-0.4-0.3-0.4-0.4v8.9h-5.1V11.4z M164.4,19.3c0-0.8-0.1-1.5-0.3-2.2c-0.2-0.7-0.5-1.3-1-1.8
		c-0.4-0.5-1-1-1.6-1.3c-0.6-0.3-1.4-0.5-2.3-0.5c-1.2,0-2,0.1-2.5,0.3c-0.5,0.2-0.9,0.3-1,0.4v8.3c0.1,0.2,0.2,0.4,0.4,0.7
		c0.2,0.3,0.5,0.5,0.8,0.8c0.3,0.2,0.7,0.4,1.2,0.6c0.5,0.2,1.1,0.2,1.8,0.2c1.4,0,2.5-0.5,3.3-1.5C164,22.4,164.4,21,164.4,19.3z"
		/>
	<path class="st0" d="M174.3,11.4c0.1-0.1,0.4-0.2,0.8-0.4c0.4-0.2,1-0.4,1.7-0.6c0.7-0.2,1.6-0.4,2.6-0.6c1-0.2,2.2-0.3,3.5-0.3
		c1.6,0,3.1,0.3,4.4,0.8c1.3,0.5,2.4,1.2,3.3,2.1c0.9,0.9,1.6,2,2.1,3.3c0.5,1.3,0.7,2.7,0.7,4.2c0,1.5-0.2,2.8-0.7,4
		c-0.5,1.1-1.1,2.1-1.9,2.9c-0.8,0.8-1.7,1.3-2.7,1.7c-1,0.4-2.1,0.6-3.3,0.6c-0.9,0-1.6-0.1-2.3-0.2c-0.6-0.2-1.2-0.3-1.6-0.5
		c-0.5-0.2-0.8-0.4-1-0.6c-0.2-0.2-0.4-0.3-0.4-0.4v8.9h-5.1V11.4z M188.2,19.3c0-0.8-0.1-1.5-0.3-2.2c-0.2-0.7-0.5-1.3-1-1.8
		c-0.4-0.5-1-1-1.6-1.3c-0.6-0.3-1.4-0.5-2.3-0.5c-1.2,0-2,0.1-2.5,0.3c-0.5,0.2-0.9,0.3-1,0.4v8.3c0.1,0.2,0.2,0.4,0.4,0.7
		c0.2,0.3,0.5,0.5,0.8,0.8c0.3,0.2,0.7,0.4,1.2,0.6c0.5,0.2,1.1,0.2,1.8,0.2c1.4,0,2.5-0.5,3.3-1.5C187.8,22.4,188.2,21,188.2,19.3z
		"/>
	<path class="st0" d="M209.9,12.4c0.3-0.6,0.6-1.2,1-1.6c0.4-0.4,1-0.6,2-0.6c0.8,0,1.4,0.1,1.9,0.4c0.5,0.3,0.7,0.5,0.8,0.6
		c-0.2,0.6-0.4,1.3-0.7,2.1c-0.3,0.8-0.7,1.7-1.1,2.6c-0.4,0.9-0.8,1.8-1.2,2.8c-0.4,0.9-0.8,1.8-1.1,2.6c-0.7,1.6-1.4,3.2-2.2,4.7
		c-0.7,1.5-1.6,3-2.5,4.6c-0.4,0.7-0.9,1.4-1.3,2.1c-0.5,0.7-1,1.3-1.6,1.8c-0.6,0.5-1.3,0.9-2.1,1.2c-0.8,0.3-1.7,0.5-2.7,0.5
		c-0.6,0-1.2,0-1.7-0.1c-0.5-0.1-1-0.2-1.4-0.3c-0.4-0.1-0.7-0.2-0.9-0.3c-0.2-0.1-0.4-0.2-0.4-0.2l1.5-3.6c0.1,0.1,0.5,0.2,1,0.3
		c0.5,0.1,1,0.2,1.5,0.2c0.8,0,1.4-0.2,1.9-0.6c0.5-0.4,1.1-1.1,1.6-2.1l1.1-2.1c-0.4-0.7-0.9-1.4-1.4-2.3c-0.5-0.8-1-1.7-1.5-2.6
		c-0.5-0.9-1-1.7-1.5-2.6c-0.5-0.9-0.9-1.6-1.3-2.3c-0.4-0.7-0.7-1.3-1-1.8c-0.3-0.5-0.4-0.8-0.5-1c-0.2-0.4-0.4-0.8-0.5-1.1
		c-0.1-0.3-0.2-0.7-0.2-1.1c0-0.3,0-0.6,0.1-0.9c0.1-0.3,0.2-0.5,0.4-0.8c0.2-0.2,0.5-0.4,0.8-0.5c0.3-0.1,0.8-0.2,1.3-0.2
		c0.7,0,1.3,0.1,1.6,0.2c0.4,0.1,0.5,0.2,0.6,0.3c0.1,0.2,0.3,0.7,0.7,1.5c0.4,0.8,0.8,1.8,1.4,2.9c0.5,1.1,1.1,2.3,1.7,3.5
		c0.6,1.2,1.2,2.4,1.8,3.5c0.5-1,0.9-2.1,1.3-3.1c0.4-1,0.8-2,1.2-2.9c0.4-0.9,0.7-1.6,0.9-2.3C209.5,13.1,209.7,12.6,209.9,12.4z"
		/>
	<path class="st0" d="M118.3,40.3c0.9,0,1.6,0.2,1.9,0.6c0.4,0.4,0.5,1,0.5,1.7c0,0.6-0.1,1.1-0.2,1.5c-0.2,0.4-0.3,0.7-0.4,0.9H112
		v20.5h-5.3V44.9h-5.8c-0.9,0-1.6-0.2-1.9-0.6c-0.4-0.4-0.5-1-0.5-1.7c0-0.6,0.1-1.1,0.2-1.5c0.2-0.4,0.3-0.7,0.4-0.9H118.3z"/>
	<path class="st0" d="M137,53.3c0,0.8-0.1,1.4-0.3,2c-0.2,0.6-0.5,1.1-1,1.6c-0.5,0.4-1,0.8-1.8,1c-0.7,0.2-1.7,0.3-2.8,0.3h-7.3
		c0.2,1,0.8,1.8,1.8,2.5c1,0.7,2.2,1,3.8,1c1.6,0,2.8-0.1,3.6-0.3c0.8-0.2,1.4-0.4,1.6-0.5l1.4,3.6c0,0-0.3,0.1-0.6,0.3
		c-0.4,0.1-0.9,0.3-1.5,0.5c-0.6,0.2-1.4,0.3-2.2,0.4c-0.9,0.1-1.8,0.2-2.9,0.2c-1.5,0-2.8-0.2-4-0.6c-1.2-0.4-2.3-1-3.2-1.8
		c-0.9-0.8-1.6-1.8-2.1-3c-0.5-1.2-0.8-2.7-0.8-4.3c0-1.5,0.2-2.9,0.7-4.2s1.1-2.3,2-3.2c0.9-0.9,1.9-1.6,3.1-2.1
		c1.2-0.5,2.6-0.7,4.1-0.7c1.4,0,2.6,0.2,3.7,0.6c1.1,0.4,2,0.9,2.7,1.6c0.7,0.7,1.3,1.4,1.6,2.3C136.8,51.4,137,52.4,137,53.3z
		 M132.2,52.9c0-0.3-0.1-0.7-0.2-1.1c-0.1-0.4-0.3-0.7-0.6-1.1c-0.3-0.3-0.7-0.6-1.2-0.8c-0.5-0.2-1.1-0.3-1.8-0.3
		c-0.8,0-1.5,0.2-2,0.5c-0.6,0.3-1.1,0.8-1.5,1.3c-0.4,0.5-0.7,1.1-0.9,1.7c-0.2,0.6-0.3,1.2-0.3,1.8h6.6c0.8,0,1.3-0.2,1.6-0.5
		C132,54.1,132.2,53.6,132.2,52.9z"/>
	<path class="st0" d="M154.3,65.4V54.9c0-3-1.4-4.5-4.2-4.5c-1,0-1.8,0.1-2.4,0.3c-0.6,0.2-1,0.3-1.2,0.4v14.3h-5.1V47.9
		c0.1,0,0.4-0.2,0.9-0.4c0.5-0.2,1.1-0.4,1.9-0.6c0.8-0.2,1.7-0.4,2.7-0.5c1-0.2,2.2-0.2,3.4-0.2c1.4,0,2.6,0.2,3.8,0.5
		c1.1,0.3,2.1,0.8,2.9,1.5c0.8,0.7,1.4,1.5,1.9,2.4c0.4,1,0.7,2.1,0.7,3.3v11.5H154.3z"/>
	<path class="st0" d="M181.6,65.3c-0.1,0-0.3,0.1-0.8,0.1c-0.5,0.1-1.1,0.1-1.8,0.2c-0.8,0.1-1.7,0.1-2.7,0.2
		c-1,0.1-2.2,0.1-3.4,0.1c-1.8,0-3.3-0.2-4.4-0.5c-1.2-0.3-2.1-0.7-2.8-1.3c-0.7-0.5-1.2-1.2-1.4-1.9c-0.3-0.7-0.4-1.5-0.4-2.4
		c0-1,0.2-2,0.5-2.7c0.3-0.8,0.8-1.4,1.5-1.9c0.7-0.5,1.6-0.9,2.7-1.1c1.1-0.2,2.5-0.4,4-0.4c1.1,0,2,0,2.7,0.1
		c0.7,0.1,1.2,0.1,1.3,0.1v-0.6c0-1.1-0.4-2-1.2-2.6c-0.8-0.6-2-0.9-3.6-0.9c-0.7,0-1.4,0.1-1.9,0.2c-0.6,0.1-1,0.3-1.4,0.5
		c-0.4,0.2-0.7,0.4-1,0.5c-0.3,0.2-0.5,0.3-0.7,0.4c-0.3-0.2-0.6-0.5-0.9-0.9c-0.3-0.4-0.4-0.9-0.4-1.4c0-0.5,0.2-1,0.5-1.4
		c0.3-0.4,0.8-0.7,1.4-0.9c0.6-0.2,1.2-0.4,2-0.5c0.7-0.1,1.5-0.1,2.3-0.1c1.5,0,2.8,0.1,4.1,0.4c1.2,0.3,2.3,0.7,3.2,1.3
		c0.9,0.6,1.6,1.5,2.1,2.5c0.5,1,0.7,2.3,0.7,3.9V65.3z M176.5,57.2c-0.1,0-0.2,0-0.4-0.1c-0.2,0-0.5,0-0.8-0.1c-0.3,0-0.7,0-1-0.1
		c-0.4,0-0.8,0-1.2,0c-0.9,0-1.6,0.1-2.2,0.2c-0.6,0.1-1,0.3-1.3,0.6c-0.3,0.3-0.5,0.6-0.6,0.9c-0.1,0.4-0.2,0.7-0.2,1.1
		c0,0.3,0,0.7,0.1,1c0.1,0.3,0.3,0.6,0.6,0.9c0.3,0.3,0.7,0.5,1.3,0.6c0.5,0.2,1.3,0.2,2.1,0.2c0.9,0,1.7,0,2.3-0.1
		c0.6-0.1,1-0.2,1.2-0.2V57.2z"/>
	<path class="st0" d="M200,65.4V54.9c0-3-1.4-4.5-4.2-4.5c-1,0-1.8,0.1-2.4,0.3c-0.6,0.2-1,0.3-1.2,0.4v14.3h-5.1V47.9
		c0.1,0,0.4-0.2,0.9-0.4c0.5-0.2,1.1-0.4,1.9-0.6c0.8-0.2,1.7-0.4,2.7-0.5c1-0.2,2.2-0.2,3.4-0.2c1.4,0,2.6,0.2,3.8,0.5
		c1.1,0.3,2.1,0.8,2.9,1.5c0.8,0.7,1.4,1.5,1.9,2.4c0.4,1,0.7,2.1,0.7,3.3v11.5H200z"/>
	<path class="st0" d="M216.7,50.9V59c0,1.1,0.2,1.8,0.8,2.2c0.5,0.4,1.2,0.6,2,0.6c0.3,0,0.7,0,1-0.1c0.3-0.1,0.6-0.2,0.9-0.3
		c0.3-0.1,0.5-0.2,0.6-0.3c0.2-0.1,0.3-0.2,0.3-0.2l1.9,3.1c0,0-0.2,0.2-0.5,0.4c-0.3,0.2-0.7,0.5-1.2,0.7c-0.5,0.2-1.1,0.5-1.8,0.7
		c-0.7,0.2-1.5,0.3-2.4,0.3c-2.3,0-4-0.6-5.1-1.8c-1-1.2-1.6-2.7-1.6-4.6v-8.6h-1.2c-0.8,0-1.4-0.2-1.7-0.5s-0.5-0.9-0.5-1.5
		c0-0.5,0.1-1,0.2-1.3c0.1-0.4,0.2-0.6,0.3-0.8h2.9v-3.2c0-0.8,0.2-1.4,0.7-1.7c0.5-0.3,1.1-0.5,1.9-0.5c0.6,0,1.1,0.1,1.6,0.2
		c0.5,0.1,0.8,0.2,0.9,0.3v5h3.9c0.8,0,1.4,0.2,1.7,0.5c0.3,0.4,0.5,0.9,0.5,1.5c0,0.5-0.1,1-0.2,1.3c-0.1,0.4-0.2,0.6-0.3,0.8
		H216.7z"/>
</g>
<g id="Group_19" transform="translate(0.06 0)">
	<path id="Path_73" class="st0" d="M84.3,47.1c-1.3-1.4-3.5-1.4-4.9-0.1c-2.8,2.7-5.9,5-9.1,7.3V22.7c0-1-0.4-2-1.3-2.7L45.2,0.7
		c-1.3-1-3.1-1-4.3,0L16.2,19.9c-0.8,0.7-1.3,1.7-1.3,2.7v20.8c0,2,1.5,3.5,3.5,3.5s3.5-1.5,3.5-3.5V24.3L43.1,7.7l20.5,16.5v33.9
		C32.3,73.6,7,48.4,5.9,47.1C4.7,45.7,2.4,45.7,1,47s-1.4,3.5-0.1,4.9C1.2,52.2,18.8,70,43.4,70c12.3,0,26.4-4.5,40.8-17.9
		C85.6,50.8,85.6,48.5,84.3,47.1z"/>
</g>
<g>
</g>
<g>
</g>
<g>
</g>
<g>
</g>
<g>
</g>
<g>
</g>
<g>
</g>
<g>
</g>
<g>
</g>
<g>
</g>
<g>
</g>
<g>
</g>
<g>
</g>
<g>
</g>
<g>
</g>
</svg>
